<svg width="60" height="60" viewBox="0 0 60 60" fill="none" xmlns="http://www.w3.org/2000/svg">
<circle cx="30" cy="30" r="30" fill="#DCEFFF"/>
<path d="M32 45C29.0333 45 26.1332 44.1203 23.6665 42.4721C21.1997 40.8238 19.2771 38.4812 18.1418 35.7403C17.0065 32.9994 16.7094 29.9834 17.2882 27.0737C17.867 24.1639 19.2956 21.4912 21.3934 19.3934C23.4912 17.2956 26.1639 15.867 29.0737 15.2882C31.9834 14.7094 34.9994 15.0065 37.7403 16.1418C40.4812 17.2771 42.8238 19.1997 44.4721 21.6665C46.1203 24.1332 47 27.0333 47 30C47 33.9783 45.4197 37.7936 42.6066 40.6066C39.7936 43.4197 35.9783 45 32 45ZM32 17C29.4288 17 26.9154 17.7624 24.7776 19.1909C22.6398 20.6194 20.9735 22.6497 19.9896 25.0251C19.0056 27.4006 18.7482 30.0144 19.2498 32.5362C19.7514 35.0579 20.9895 37.3743 22.8076 39.1924C24.6257 41.0105 26.9421 42.2486 29.4638 42.7502C31.9856 43.2518 34.5995 42.9944 36.9749 42.0104C39.3503 41.0265 41.3807 39.3603 42.8091 37.2224C44.2376 35.0846 45 32.5712 45 30C45 26.5522 43.6304 23.2456 41.1924 20.8076C38.7544 18.3696 35.4478 17 32 17Z" fill="#093B78"/>
<path d="M36.24 35.66L31.29 30.71C31.1973 30.6166 31.124 30.5057 31.0742 30.3839C31.0245 30.2621 30.9993 30.1316 31 30V22H33V29.59L37.66 34.24L36.24 35.66Z" fill="#093B78"/>
</svg>
