<svg width="60" height="60" viewBox="0 0 60 60" fill="none" xmlns="http://www.w3.org/2000/svg">
<circle cx="30" cy="30" r="30" fill="#DCEFFF"/>
<path d="M36.5193 43.6449C35.4194 43.6367 34.3243 43.4986 33.2568 43.2335C29.5704 42.3441 25.7742 40.0877 22.5693 36.8801C19.3645 33.6724 17.1054 29.8756 16.2159 26.1926C15.2793 22.3184 15.9473 19.0038 18.0947 16.8565L18.7078 16.2434C19.2641 15.6882 20.0179 15.3764 20.8038 15.3764C21.5897 15.3764 22.3435 15.6882 22.8998 16.2434L26.4232 19.766C26.9787 20.3221 27.2907 21.076 27.2907 21.862C27.2907 22.6481 26.9787 23.402 26.4232 23.9581L24.3419 26.0386C25.3397 27.7894 26.6967 29.5416 28.3005 31.1454C29.9043 32.7492 31.6579 34.107 33.408 35.1047L35.4886 33.0235C35.7638 32.7481 36.0905 32.5297 36.4502 32.3807C36.8098 32.2317 37.1953 32.155 37.5846 32.155C37.9739 32.155 38.3593 32.2317 38.719 32.3807C39.0786 32.5297 39.4054 32.7481 39.6806 33.0235L43.2032 36.5461C43.7589 37.102 44.071 37.8558 44.071 38.6418C44.071 39.4277 43.7589 40.1815 43.2032 40.7374L42.5894 41.3506C41.0756 42.8672 38.9803 43.6449 36.5193 43.6449ZM20.8038 17.4844C20.6915 17.4838 20.5803 17.5057 20.4766 17.5487C20.3729 17.5916 20.2788 17.6549 20.1998 17.7347L19.586 18.3478C17.9779 19.9559 17.5082 22.5666 18.2634 25.6948C19.0629 29.0086 21.1209 32.4518 24.0579 35.3881C26.9948 38.3243 30.4373 40.3802 33.7518 41.1825C36.8807 41.9377 39.49 41.468 41.0981 39.8599L41.7112 39.2468C41.8714 39.0865 41.9614 38.8691 41.9614 38.6425C41.9614 38.4158 41.8714 38.1985 41.7112 38.0381L38.1893 34.5155C38.0289 34.3553 37.8116 34.2653 37.5849 34.2653C37.3583 34.2653 37.1409 34.3553 36.9806 34.5155L34.3432 37.1529C34.1849 37.3112 33.9804 37.4151 33.7592 37.4495C33.538 37.4839 33.3115 37.447 33.1127 37.3442C30.9506 36.2262 28.7709 34.5985 26.8092 32.6367C24.8475 30.675 23.2232 28.4967 22.1025 26.3346C21.9995 26.1358 21.9625 25.9095 21.9968 25.6883C22.031 25.4671 22.1348 25.2625 22.293 25.1042L24.9311 22.4667C25.0913 22.3064 25.1813 22.089 25.1813 21.8624C25.1813 21.6358 25.0913 21.4184 24.9311 21.2581L21.4085 17.7347C21.3293 17.655 21.235 17.5919 21.1312 17.5489C21.0274 17.5059 20.9161 17.484 20.8038 17.4844Z" fill="#093B78"/>
<path d="M37.6465 30.9654C37.3668 30.9654 37.0985 30.8543 36.9007 30.6565C36.7029 30.4587 36.5918 30.1905 36.5918 29.9107C36.5898 28.0605 35.8539 26.2866 34.5456 24.9782C33.2374 23.6698 31.4635 22.9338 29.6133 22.9315C29.3336 22.9315 29.0653 22.8204 28.8675 22.6226C28.6697 22.4248 28.5586 22.1566 28.5586 21.8768C28.5586 21.5971 28.6697 21.3288 28.8675 21.1311C29.0653 20.9333 29.3336 20.8221 29.6133 20.8221C34.6245 20.8221 38.7012 24.9003 38.7012 29.9107C38.7012 30.1905 38.5901 30.4587 38.3923 30.6565C38.1945 30.8543 37.9262 30.9654 37.6465 30.9654Z" fill="#093B78"/>
<path d="M42.1043 30.9654C41.8246 30.9654 41.5563 30.8543 41.3585 30.6565C41.1607 30.4587 41.0496 30.1904 41.0496 29.9107C41.0496 23.6044 35.9168 18.4737 29.6133 18.4737C29.3336 18.4737 29.0653 18.3626 28.8675 18.1648C28.6697 17.967 28.5586 17.6987 28.5586 17.419C28.5586 17.1393 28.6697 16.871 28.8675 16.6732C29.0653 16.4754 29.3336 16.3643 29.6133 16.3643C37.0826 16.3643 43.159 22.4414 43.159 29.9107C43.159 30.1904 43.0479 30.4587 42.8501 30.6565C42.6523 30.8543 42.384 30.9654 42.1043 30.9654Z" fill="#093B78"/>
</svg>
